<?xml version="1.0"?>
<svg xmlns="http://www.w3.org/2000/svg" xmlns:xlink="http://www.w3.org/1999/xlink" version="1.1" viewBox="0 0 224 224" width="500px" height="500px"><g fill="none" fill-rule="nonzero" stroke="none" stroke-width="1" stroke-linecap="butt" stroke-linejoin="miter" stroke-miterlimit="10" stroke-dasharray="" stroke-dashoffset="0" font-family="none" font-weight="none" font-size="none" text-anchor="none" style="mix-blend-mode: normal"><path d="M0,224v-224h224v224z" fill="#0d47a1"/><g fill="#ffffff"><g id="surface1"><path d="M179.2,0c-24.5,0 -44.5025,19.81 -44.8,44.24l-63.14,31.64c-7.42,-5.46 -16.5725,-8.68 -26.46,-8.68c-24.6925,0 -44.8,20.1075 -44.8,44.8c0,24.6925 20.1075,44.8 44.8,44.8c9.8875,0 19.04,-3.22 26.46,-8.68l63.14,31.64c0.2975,24.43 20.3,44.24 44.8,44.24c24.6925,0 44.8,-20.1075 44.8,-44.8c0,-24.6925 -20.1075,-44.8 -44.8,-44.8c-9.52,0 -18.3575,3.0275 -25.62,8.12l-61.18,-30.52l61.18,-30.52c7.2625,5.0925 16.1,8.12 25.62,8.12c24.6925,0 44.8,-20.1075 44.8,-44.8c0,-24.6925 -20.1075,-44.8 -44.8,-44.8zM179.2,8.96c19.845,0 35.84,15.995 35.84,35.84c0,19.845 -15.995,35.84 -35.84,35.84c-7.3325,0 -14.07,-2.275 -19.74,-6.02c-0.56,-1.8725 -2.2575,-3.1675 -4.2,-3.22c-0.0175,-0.0175 -0.1225,0.0175 -0.14,0c-6.2475,-5.6525 -10.4475,-13.5625 -11.48,-22.4c0.945,-1.575 0.84,-3.57 -0.28,-5.04c0.455,-19.4425 16.275,-35 35.84,-35zM135.38,53.76c1.6625,8.1025 5.5125,15.4 10.92,21.28l-57.54,28.84c-1.5225,-8.19 -5.18,-15.575 -10.5,-21.56zM44.8,76.16c8.295,0 15.925,2.73 21.98,7.42c0.0525,0.035 0.0875,0.105 0.14,0.14c0.035,0.0875 0.0875,0.1925 0.14,0.28c0.385,0.4725 0.8575,0.84 1.4,1.12c0.0175,0.0175 0.1225,-0.0175 0.14,0c6.7025,5.95 11.13,14.4375 11.9,23.94c-0.5075,1.225 -0.455,2.6075 0.14,3.78c-0.0875,0.3675 -0.14,0.735 -0.14,1.12c-0.5425,9.94 -5.0575,18.7775 -12.04,24.92c-0.42,0.2625 -0.805,0.595 -1.12,0.98c-6.16,4.9875 -13.965,7.98 -22.54,7.98c-19.845,0 -35.84,-15.995 -35.84,-35.84c0,-19.845 15.995,-35.84 35.84,-35.84zM88.76,120.12l57.54,28.84c-5.4075,5.88 -9.2575,13.1775 -10.92,21.28l-57.12,-28.56c5.32,-5.985 8.9775,-13.37 10.5,-21.56zM179.2,143.36c19.845,0 35.84,15.995 35.84,35.84c0,19.845 -15.995,35.84 -35.84,35.84c-19.845,0 -35.84,-15.995 -35.84,-35.84c0,-10.78 4.69,-20.4575 12.18,-27.02c0.105,-0.0875 0.1925,-0.175 0.28,-0.28c0.0175,-0.0175 0.1225,0.0175 0.14,0c0.7175,-0.2975 1.3475,-0.7875 1.82,-1.4c5.985,-4.4625 13.3525,-7.14 21.42,-7.14z"/></g></g></g></svg>
