<svg xmlns="http://www.w3.org/2000/svg" viewBox="0 0 50 40.614">
  <defs>
    <style>
      .cls-1 {
        fill: #fff;
      }
    </style>
  </defs>
  <g id="twitter-throwback" transform="translate(-428 -163)">
    <g id="twitter-logo-silhouette" transform="translate(427.999 105.559)">
      <g id="Group_1" data-name="Group 1" transform="translate(0.001 57.441)">
        <path id="Path_1" data-name="Path 1" class="cls-1" d="M50,62.246a20.483,20.483,0,0,1-5.89,1.615,10.3,10.3,0,0,0,4.509-5.671,20.678,20.678,0,0,1-6.518,2.49,10.265,10.265,0,0,0-17.478,9.351A29.12,29.12,0,0,1,3.485,59.316,10.269,10.269,0,0,0,6.659,73.007,10.258,10.258,0,0,1,2.013,71.72v.128A10.267,10.267,0,0,0,10.24,81.905a10.389,10.389,0,0,1-2.7.359,9.845,9.845,0,0,1-1.931-.191,10.262,10.262,0,0,0,9.58,7.124A20.579,20.579,0,0,1,2.447,93.581,21.8,21.8,0,0,1,0,93.441a28.993,28.993,0,0,0,15.722,4.615c18.868,0,29.182-15.628,29.182-29.182l-.034-1.328A20.482,20.482,0,0,0,50,62.246Z" transform="translate(-0.001 -57.441)"/>
      </g>
    </g>
  </g>
</svg>
